<?xml version="1.0" encoding="UTF-8"?>
<svg width="23px" height="25px" viewBox="0 0 23 25" version="1.1" xmlns="http://www.w3.org/2000/svg" xmlns:xlink="http://www.w3.org/1999/xlink">
    <!-- Generator: Sketch 52.4 (67378) - http://www.bohemiancoding.com/sketch -->
    <g id="Symbols" stroke="none" stroke-width="1" fill="none" fill-rule="evenodd">
        <g id="Header-Main" transform="translate(-1247.000000, -3.000000)" fill-rule="nonzero">
            <g id="Group-7">
                <g id="Group-2">
                    <g id="Group-12" transform="translate(1248.000000, 4.000000)">
                        <g id="Notification-Icon" stroke="#000000" stroke-linecap="round" stroke-width="1.5">
                            <g id="thin-0605_ringer_alarm_sound">
                                <g id="Group">
                                    <g id="Shape">
                                        <path d="M19.857284,16.147 C18.7190123,14.9196 16.2510617,11.6463 16.4528395,6.4959 C16.5722469,3.4503 14.9435062,1.8358 13.285037,0.9826 C11.1915062,-0.0943 8.68474074,-0.0943 6.59120988,0.9826 C4.93264198,1.8357 3.30390123,3.4502 3.42330864,6.4958 C3.62518519,11.6463 1.15723457,14.9196 0.018962963,16.1469"></path>
                                        <path d="M19.857284,16.147 C14.448,20.6088 5.42123457,20.6031 0.018962963,16.147"></path>
                                    </g>
                                    <path d="M7.70479012,21.0372 C7.70479012,22.0221 8.70666667,22.8234 9.93777778,22.8234 C11.1693827,22.8234 12.171358,22.0221 12.171358,21.0372" id="Shape"></path>
                                </g>
                            </g>
                        </g>
                        <circle id="Oval-4" stroke="#FFFFFF" stroke-width="3" fill="#FF3366" cx="16" cy="5" r="4.5"></circle>
                    </g>
                </g>
            </g>
        </g>
    </g>
</svg>