<svg width="23" height="25" viewBox="0 0 23 25" fill="none" xmlns="http://www.w3.org/2000/svg">
<path d="M20.8579 17.147C19.7196 15.9196 17.2516 12.6463 17.4534 7.4959C17.5728 4.4503 15.9441 2.8358 14.2856 1.9826C12.1921 0.905702 9.68531 0.905702 7.59178 1.9826C5.93321 2.8357 4.30447 4.4502 4.42388 7.4958C4.62575 12.6463 2.1578 15.9196 1.01953 17.1469" stroke="black" stroke-width="1.5" stroke-linecap="round"/>
<path d="M20.8579 17.147C15.4486 21.6088 6.4218 21.6031 1.01953 17.147" stroke="black" stroke-width="1.5" stroke-linecap="round"/>
<path d="M8.70508 22.0372C8.70508 23.0221 9.70695 23.8234 10.9381 23.8234C12.1697 23.8234 13.1716 23.0221 13.1716 22.0372" stroke="black" stroke-width="1.5" stroke-linecap="round"/>
<path d="M17 10.5C19.4853 10.5 21.5 8.48528 21.5 6C21.5 3.51472 19.4853 1.5 17 1.5C14.5147 1.5 12.5 3.51472 12.5 6C12.5 8.48528 14.5147 10.5 17 10.5Z" fill="#FF3366" stroke="#F3F3F3" stroke-width="3"/>
</svg>
