<svg width="45" height="45" viewBox="0 0 45 45" fill="none" xmlns="http://www.w3.org/2000/svg">
<g clip-path="url(#clip0)">
<path d="M10.8 1.10024C9.8 1.60024 9 3.20024 9 4.50024C9 6.40024 8.5 7.00024 6.7 7.00024C2.4 7.00024 2 8.40024 2 25.6003C2 39.0002 2.3 42.1002 3.6 43.4002C5.9 45.8002 39.1 45.8002 41.4 43.4002C42.7 42.1002 43 39.0002 43 25.6003C43 8.40024 42.6 7.00024 38.3 7.00024C36.5 7.00024 36 6.40024 36 4.50024C36 -0.599756 28.5 -0.899755 27.8 4.20024C27.5 6.20024 26.9 6.50024 22.5 6.50024C18.3 6.50024 17.5 6.20024 17.2 4.50024C16.9 2.70024 14.4 0.000244141 13.1 0.000244141C12.8 0.000244141 11.7 0.500244 10.8 1.10024ZM40 29.0002V42.0002H22.5H5V29.0002V16.0002H22.5H40V29.0002Z" fill="#979797"/>
</g>
<defs>
<clipPath id="clip0">
<rect width="45" height="45" fill="white"/>
</clipPath>
</defs>
</svg>
