<?xml version="1.0" encoding="UTF-8"?>
<svg width="25px" height="25px" viewBox="0 0 25 25" version="1.1" xmlns="http://www.w3.org/2000/svg" xmlns:xlink="http://www.w3.org/1999/xlink">
  <path d="M10.9995 21.9991C17.0744 21.9991 21.9991 17.0744 21.9991 10.9995C21.9991 4.92466 17.0744 0 10.9995 0C4.92466 0 0 4.92466 0 10.9995C0 17.0744 4.92466 21.9991 10.9995 21.9991Z" fill="#32BA7C" />
      <path d="M8.18945 15.9624L13.8454 21.6183C18.5297 20.3692 21.9996 16.1012 21.9996 11.0005C21.9996 10.8964 21.9996 10.7923 21.9996 10.6882L17.5581 6.59375L8.18945 15.9624Z" fill="#0AA06E" />
      <path d="M11.2765 13.464C11.7623 13.9498 11.7623 14.7825 11.2765 15.2683L10.2703 16.2746C9.78447 16.7604 8.9517 16.7604 8.46591 16.2746L4.05916 11.8331C3.57338 11.3474 3.57338 10.5146 4.05916 10.0288L5.06543 9.02254C5.55121 8.53676 6.38398 8.53676 6.86977 9.02254L11.2765 13.464Z" fill="white" />
      <path d="M15.1289 5.79598C15.6147 5.31019 16.4475 5.31019 16.9333 5.79598L17.9395 6.80224C18.4253 7.28803 18.4253 8.1208 17.9395 8.60658L10.3058 16.2056C9.82002 16.6914 8.98725 16.6914 8.50146 16.2056L7.4952 15.1994C7.00941 14.7136 7.00941 13.8808 7.4952 13.395L15.1289 5.79598Z" fill="white" />
</svg>