<svg width="36" height="51" viewBox="0 0 36 51" fill="none" xmlns="http://www.w3.org/2000/svg">
<path d="M30.3225 7.96606H34.8686L34.3241 45.4465H10.0979L10.0948 45.4549C9.87492 45.4776 6.71334 45.4465 6.48471 45.4465C3.69036 45.4465 1.42383 43.7501 1.42383 41.6608" stroke="#231F20" stroke-width="2" stroke-linecap="round" stroke-linejoin="round"/>
<path fill-rule="evenodd" clip-rule="evenodd" d="M1.87109 13.0923C1.94871 8.10566 1.99726 4.98753 1.99726 4.92731C1.99726 2.83715 4.06198 1.08993 7.059 1.14251L30.4856 1.18351V11.2549" fill="white"/>
<path d="M1.87109 13.0923C1.94871 8.10566 1.99726 4.98753 1.99726 4.92731C1.99726 2.83715 4.06198 1.08993 7.059 1.14251L30.4856 1.18351V11.2549" stroke="#231F20" stroke-width="2" stroke-linecap="round" stroke-linejoin="round"/>
<path fill-rule="evenodd" clip-rule="evenodd" d="M30.4851 25.4182V37.6759H7.10371C5.85584 37.6759 4.61588 37.9727 3.53794 38.6024C2.4981 39.2102 1.5054 40.1751 1.42383 41.6608C1.42383 41.6608 1.51838 35.6199 1.63072 28.438" fill="white"/>
<path d="M30.4851 25.4182V37.6759H7.10371C5.85584 37.6759 4.61588 37.9727 3.53794 38.6024C2.4981 39.2102 1.5054 40.1751 1.42383 41.6608C1.42383 41.6608 1.51838 35.6199 1.63072 28.438" stroke="#231F20" stroke-width="2" stroke-linecap="round" stroke-linejoin="round"/>
<path fill-rule="evenodd" clip-rule="evenodd" d="M1.27059 16.7271C1.27059 14.6369 4.06043 13.041 7.05745 13.0935L30.1021 13.0927C30.7047 13.0927 31.1933 13.5821 31.1933 14.1857V22.6719C31.1933 23.2758 30.7047 23.7652 30.1021 23.7652H9.16874C6.82374 23.7652 4.30091 24.5797 2.53229 26.1219C2.36604 26.267 2.20797 26.4151 2.06233 26.5658C1.7493 26.8887 1.20087 26.6495 1.20708 26.1994C1.25112 23.0451 1.27059 16.8608 1.27059 16.7271Z" fill="#FF9037"/>
<path d="M27.0039 41.5691H30.9075" stroke="#231F20" stroke-width="2" stroke-linecap="round" stroke-linejoin="round"/>
<path d="M6.00195 41.5691H18.9398" stroke="#231F20" stroke-width="2" stroke-linecap="round" stroke-linejoin="round"/>
<mask id="mask0" mask-type="alpha" maskUnits="userSpaceOnUse" x="20" y="40" width="6" height="10">
<path fill-rule="evenodd" clip-rule="evenodd" d="M20.293 40.6802H25.6486V49.9181H20.293V40.6802Z" fill="white"/>
</mask>
<g mask="url(#mask0)">
<path fill-rule="evenodd" clip-rule="evenodd" d="M20.8327 40.6802H25.2503C25.4705 40.6802 25.6486 40.8589 25.6486 41.0791V49.595C25.6486 49.891 25.2842 50.0306 25.0869 49.8101L22.8918 47.3578L20.8604 49.7516C20.6645 49.9823 20.2877 49.8401 20.293 49.5373L20.4344 41.0723C20.4381 40.8546 20.6151 40.6802 20.8327 40.6802Z" fill="#FF9037"/>
</g>
</svg>
