<svg width="24" height="24" viewBox="0 0 24 24" fill="none" xmlns="http://www.w3.org/2000/svg">
<path opacity="0.7" d="M2.5 14C3.88071 14 5 12.8807 5 11.5C5 10.1193 3.88071 9 2.5 9C1.11929 9 0 10.1193 0 11.5C0 12.8807 1.11929 14 2.5 14Z" fill="#5C5C5C"/>
<path opacity="0.7" d="M11.5 14C12.8807 14 14 12.8807 14 11.5C14 10.1193 12.8807 9 11.5 9C10.1193 9 9 10.1193 9 11.5C9 12.8807 10.1193 14 11.5 14Z" fill="#5C5C5C"/>
<path opacity="0.7" d="M20.5 14C21.8807 14 23 12.8807 23 11.5C23 10.1193 21.8807 9 20.5 9C19.1193 9 18 10.1193 18 11.5C18 12.8807 19.1193 14 20.5 14Z" fill="#5C5C5C"/>
</svg>
