<?xml version="1.0" encoding="UTF-8"?>
<svg width="14px" height="14px" viewBox="0 0 14 14" version="1.1" xmlns="http://www.w3.org/2000/svg" xmlns:xlink="http://www.w3.org/1999/xlink">
    <!-- Generator: sketchtool 54.1 (76490) - https://sketchapp.com -->
    <title>3C7950B7-180C-4B64-BFA4-58C60500CECB</title>
    <desc>Created with sketchtool.</desc>
    <g id="Page-1" stroke="none" stroke-width="1" fill="none" fill-rule="evenodd">
        <g id="34-User-profile-Analytics" transform="translate(-737.000000, -1263.000000)" fill-rule="nonzero">
            <g id="Group-38" transform="translate(744.000000, 1270.000000) scale(1, -1) translate(-744.000000, -1270.000000) translate(737.000000, 1263.000000)">
                <g id="exclamation-mark-copy-2">
                    <g>
                        <circle id="Oval-4" fill="#757575" cx="7" cy="7" r="7"></circle>
                        <path d="M7.00044048,3.06992386 C6.49908059,3.06992386 6.11973264,3.33156677 6.11973264,3.75417928 L6.11973264,7.63041943 C6.11973264,8.05347242 6.49903165,8.31423438 7.00044048,8.31423438 C7.48956491,8.31423438 7.88114831,8.0425584 7.88114831,7.63041943 L7.88114831,3.75417928 C7.88109937,3.34159984 7.48956491,3.06992386 7.00044048,3.06992386 Z M7.00044048,9.18750306 C6.5187552,9.18750306 6.12673132,9.57952694 6.12673132,10.0616038 C6.12673132,10.5428486 6.5187552,10.9348724 7.00044048,10.9348724 C7.48212575,10.9348724 7.87370916,10.5428486 7.87370916,10.0616038 C7.87366022,9.579478 7.48212575,9.18750306 7.00044048,9.18750306 Z" id="Shape" fill="#FFFFFF"></path>
                    </g>
                </g>
            </g>
        </g>
    </g>
</svg>