<?xml version="1.0" encoding="UTF-8"?>
<svg width="25px" height="24px" viewBox="0 0 25 24" version="1.1" xmlns="http://www.w3.org/2000/svg" xmlns:xlink="http://www.w3.org/1999/xlink">
    <!-- Generator: Sketch 52.4 (67378) - http://www.bohemiancoding.com/sketch -->
    <title>thin-0041_filter_funnel</title>
    <desc>Created with Sketch.</desc>
    <g id="Page-1" stroke="none" stroke-width="1" fill="none" fill-rule="evenodd" stroke-linecap="round">
        <g id="1.5-Category-View" transform="translate(-158.000000, -295.000000)" fill-rule="nonzero" stroke="#DCDCDC" stroke-width="2">
            <g id="thin-0041_filter_funnel" transform="translate(159.000000, 296.000000)">
                <g id="Group" transform="translate(0.000000, 0.396396)">
                    <path d="M22.4742883,3.8610991 C22.4742883,2.36579279 17.4673063,0.516900901 11.2963063,0.516900901 C5.12540541,0.516900901 0.118324324,2.36579279 0.118324324,3.8610991 L0.118324324,3.94374775 C0.118324324,6.57373874 7.35037838,12.730964 8.66690991,15.3610541 L8.66690991,20.0158378 C8.66690991,21.7461081 13.9258018,21.748982 13.9258018,20.0158378 L13.9258018,15.3610541 C15.2423333,12.730964 22.4743874,6.57373874 22.4743874,3.94374775 C22.4742883,3.94374775 22.4742883,3.89003604 22.4742883,3.8610991 L22.4742883,3.8610991 Z" id="Shape"></path>
                    <path d="M1.57161261,4.25174775 C3.14025225,7.10887387 19.4521622,7.10867568 21.0209009,4.25174775" id="Shape"></path>
                </g>
            </g>
        </g>
    </g>
</svg>