<?xml version="1.0" encoding="UTF-8"?>
<svg width="13px" height="13px" viewBox="0 0 13 13" version="1.1" xmlns="http://www.w3.org/2000/svg" xmlns:xlink="http://www.w3.org/1999/xlink">
    <!-- Generator: sketchtool 58 (101010) - https://sketch.com -->
    <title>7AAEFC9E-0B7D-473D-A2FC-1431BBCFF2C6</title>
    <desc>Created with sketchtool.</desc>
    <g id="Page-1" stroke="none" stroke-width="1" fill="none" fill-rule="evenodd">
        <g id="Assets" transform="translate(-82.000000, -7671.000000)">
            <g id="Group-30" transform="translate(76.000000, 7666.000000)">
                <polygon id="Path" points="0 0 24 0 24 24 0 24"></polygon>
                <path d="M18.59372,11.29686 C18.59372,14.7745243 15.7745243,17.59372 12.29686,17.59372 C8.8191957,17.59372 6,14.7745243 6,11.29686 C6,7.8191957 8.8191957,5 12.29686,5 C15.7745243,5 18.59372,7.8191957 18.59372,11.29686 Z M11.5685178,14.6310081 L16.2403816,9.95914421 C16.3989983,9.80050278 16.3989983,9.54324974 16.2403816,9.38460831 L15.6658457,8.81009719 C15.5072291,8.65143096 15.249976,8.65143096 15.0913098,8.81009719 L11.2812374,12.6201696 L9.50241017,10.8413176 C9.34376873,10.6826761 9.0865157,10.6826761 8.92787426,10.8413176 L8.35333835,11.4158287 C8.19472171,11.5744701 8.19472171,11.8317231 8.35333835,11.9903646 L10.9939571,14.6309833 C11.1526233,14.7896247 11.4098515,14.7896247 11.5685178,14.6310081 Z" id="c" fill="#14C855" fill-rule="nonzero"></path>
            </g>
        </g>
    </g>
</svg>