<svg width="17" height="24" viewBox="0 0 17 24" fill="none" xmlns="http://www.w3.org/2000/svg">
<path d="M15.8274 7.53886C16.1864 7.53886 16.4774 7.82987 16.4774 8.18886C16.4774 8.54784 16.1864 8.83886 15.8274 8.83886H12.7984C12.4395 8.83886 12.1484 8.54784 12.1484 8.18886V5.1489C12.1484 4.78992 12.4395 4.4989 12.7984 4.4989C13.1574 4.4989 13.4484 4.78992 13.4484 5.1489V7.53886H15.8274Z" fill="#FF3366"/>
<path fill-rule="evenodd" clip-rule="evenodd" d="M15.2291 23.2789C15.9208 23.2789 16.4785 22.7105 16.4785 22.021V8.18895C16.4785 7.84714 16.3469 7.58712 16.1071 7.34971L13.5989 4.86564C13.3455 4.61464 13.1506 4.4989 12.7995 4.4989H2.63478C1.94259 4.4989 1.38867 5.07287 1.38867 5.76116V22.021C1.38867 22.7099 1.94324 23.2789 2.63478 23.2789H15.2291ZM15.1785 8.25968V21.9789H2.68867V5.7989H12.6938L15.1785 8.25968Z" fill="#FF3366"/>
<path d="M5.15634 6.49599C5.15635 6.13701 5.44737 5.846 5.80636 5.846C6.16534 5.84601 6.45635 6.13703 6.45634 6.49602L6.45625 10.6924C6.45625 11.3557 6.99186 11.8932 7.65047 11.8931C8.30926 11.893 8.84455 11.3557 8.84455 10.6924L8.84473 2.87553C8.84473 2.46773 8.51581 2.13762 8.11176 2.13752C7.70728 2.13752 7.37832 2.46773 7.37842 2.8759V5.14894C7.37842 5.50793 7.0874 5.79894 6.72842 5.79894C6.36943 5.79894 6.07842 5.50793 6.07842 5.14894L6.07842 2.87605C6.07815 1.75097 6.98816 0.837524 8.11191 0.837524C9.23494 0.837795 10.1447 1.75085 10.1447 2.87554L10.1445 10.6924C10.1445 12.0726 9.02838 13.1928 7.6507 13.1931C6.27296 13.1933 5.15625 12.0727 5.15625 10.6924L5.15634 6.49599Z" fill="#FF3366"/>
</svg>
