<svg width="50" height="50" viewBox="0 0 50 50" fill="none" xmlns="http://www.w3.org/2000/svg">
<path fill-rule="evenodd" clip-rule="evenodd" d="M28.3677 23.6657C28.5149 23.9535 28.8077 24.1198 29.1104 24.1198C29.2368 24.1198 29.3665 24.0906 29.4872 24.0291C29.5362 24.0042 34.4317 21.5173 36.8462 20.7547C37.2837 20.6158 37.5265 20.1483 37.3876 19.7109C37.2495 19.2734 36.7854 19.0297 36.3438 19.1678C33.8005 19.9721 28.9383 22.4423 28.732 22.5471C28.3228 22.755 28.1598 23.2557 28.3677 23.6657Z" fill="black"/>
<path d="M25.8223 8.30669L36.1853 2.84111C38.1831 1.78743 40.5848 3.236 40.5848 5.49467V34.7499L25.8223 42.1839V8.30669Z" fill="#FF9037"/>
<path fill-rule="evenodd" clip-rule="evenodd" d="M29.1104 14.1395C29.2368 14.1395 29.3665 14.1104 29.4872 14.0489C29.5362 14.0239 34.4317 11.5371 36.8461 10.7744C37.2837 10.6355 37.5265 10.1681 37.3876 9.73067C37.2495 9.29315 36.7854 9.04948 36.3438 9.18759C33.8004 9.99188 28.9383 12.4621 28.732 12.5668C28.3229 12.7747 28.1598 13.2754 28.3677 13.6854C28.5149 13.9732 28.8076 14.1395 29.1104 14.1395Z" fill="black"/>
<path fill-rule="evenodd" clip-rule="evenodd" d="M48.2392 13.3077V45.7443C48.2392 47.1199 47.1197 48.2394 45.7441 48.2394H25.783V46.3257C26.9957 45.9015 30.1545 44.9126 33.2684 44.9126C40.5135 44.9126 45.433 46.517 45.4821 46.5336C45.7324 46.6167 46.0119 46.5752 46.2306 46.4188C46.4477 46.2624 46.5757 46.0113 46.5757 45.7442V9.14918C46.5757 8.75912 46.3055 8.4214 45.9245 8.33739C45.9245 8.33739 45.2724 8.19187 44.1579 7.98719C43.7079 7.90405 43.273 8.20347 43.1898 8.65425C43.1066 9.10668 43.4052 9.54002 43.8568 9.62316C44.2819 9.70132 44.6378 9.77033 44.9123 9.8253V44.6389C43.0276 44.1449 38.8425 43.2492 33.2683 43.2492C29.6445 43.2492 26.0849 44.4393 24.9836 44.8427C24.0047 44.4103 21.0455 43.2492 17.4658 43.2492C11.7369 43.2492 7.01784 44.194 4.99016 44.6739V9.79284C6.65107 9.38446 11.5565 8.31741 17.4658 8.31741C20.4982 8.31741 23.0989 9.26136 24.1195 9.68807V42.4175C24.1195 42.7169 24.2808 42.9939 24.5411 43.1411C24.8015 43.2891 25.1225 43.285 25.3795 43.1303C25.4619 43.0812 25.783 42.6329 25.7828 40.9729V9.14918C25.7828 8.83397 25.6049 8.54616 25.3229 8.40483C25.1798 8.33417 21.7715 6.65405 17.4658 6.65405C9.95049 6.65405 4.17261 8.28008 3.92973 8.34986C3.5729 8.45132 3.32671 8.77822 3.32671 9.14918V45.7444C3.32671 46.0047 3.44981 46.2509 3.65692 46.4081C3.80331 46.5188 3.97963 46.5762 4.15848 46.5762C4.23499 46.5762 4.3115 46.5654 4.38635 46.5437C4.44376 46.5279 10.195 44.9127 17.4658 44.9127C20.5065 44.9127 23.1048 45.8592 24.1195 46.2842V48.2395H4.15848C2.78285 48.2395 1.66335 47.12 1.66335 45.7444V13.3078C1.66335 12.8487 1.29074 12.4761 0.831676 12.4761C0.372612 12.4761 0 12.8487 0 13.3078V45.7444C0 48.0374 1.8655 49.903 4.15858 49.903H45.7441C48.037 49.903 49.9026 48.0375 49.9026 45.7444V13.3078C49.9025 12.8486 48.2392 12.8486 48.2392 13.3077Z" fill="black"/>
<path fill-rule="evenodd" clip-rule="evenodd" d="M28.3677 18.6754C28.5149 18.9633 28.8077 19.1295 29.1104 19.1295C29.2368 19.1295 29.3665 19.1004 29.4872 19.0389C29.5362 19.0139 34.4317 16.5271 36.8462 15.7644C37.2837 15.6255 37.5265 15.1581 37.3876 14.7207C37.2495 14.2831 36.7854 14.0395 36.3438 14.1776C33.8005 14.9819 28.9383 17.452 28.732 17.5568C28.3228 17.7647 28.1598 18.2655 28.3677 18.6754Z" fill="black"/>
<path fill-rule="evenodd" clip-rule="evenodd" d="M28.3677 28.6561C28.5149 28.944 28.8077 29.1102 29.1104 29.1102C29.2368 29.1102 29.3665 29.0811 29.4872 29.0196C29.5362 28.9946 34.4317 26.5078 36.8462 25.7451C37.2837 25.6062 37.5265 25.1388 37.3876 24.7014C37.2495 24.2638 36.7854 24.0202 36.3438 24.1583C33.8005 24.9626 28.9383 27.4328 28.732 27.5375C28.3228 27.7454 28.1598 28.2462 28.3677 28.6561Z" fill="black"/>
<path fill-rule="evenodd" clip-rule="evenodd" d="M20.1502 15.4353C15.0144 14.2301 9.17827 15.7655 8.93295 15.8312C8.48968 15.9501 8.22603 16.4058 8.34494 16.85C8.44474 17.2217 8.78071 17.4663 9.14757 17.4663C9.21911 17.4663 9.29143 17.4571 9.36385 17.438C9.4196 17.4222 15.0386 15.9443 19.7711 17.0546C20.216 17.1586 20.666 16.8816 20.7708 16.4341C20.8754 15.9875 20.5977 15.5401 20.1502 15.4353Z" fill="black"/>
<path fill-rule="evenodd" clip-rule="evenodd" d="M20.1502 20.4256C15.0144 19.2213 9.17827 20.7558 8.93295 20.8215C8.48968 20.9404 8.22603 21.3963 8.34494 21.8403C8.44474 22.2121 8.78071 22.4566 9.14757 22.4566C9.21911 22.4566 9.29143 22.4475 9.36385 22.4284C9.4196 22.4126 15.0386 20.9346 19.7711 22.0449C20.216 22.1489 20.666 21.8719 20.7708 21.4245C20.8754 20.9779 20.5977 20.5304 20.1502 20.4256Z" fill="black"/>
<path fill-rule="evenodd" clip-rule="evenodd" d="M28.3677 33.6464C28.5149 33.9342 28.8077 34.1005 29.1104 34.1005C29.2368 34.1005 29.3665 34.0713 29.4872 34.0098C29.5362 33.9849 34.4317 31.498 36.8462 30.7354C37.2837 30.5965 37.5265 30.129 37.3876 29.6916C37.2495 29.2542 36.7854 29.0104 36.3438 29.1485C33.8005 29.9528 28.9383 32.423 28.732 32.5278C28.3228 32.7357 28.1598 33.2364 28.3677 33.6464Z" fill="black"/>
<path fill-rule="evenodd" clip-rule="evenodd" d="M20.1502 25.4158C15.0144 24.2115 9.17827 25.7451 8.93295 25.8117C8.48968 25.9306 8.22603 26.3864 8.34494 26.8305C8.44474 27.2022 8.78071 27.4476 9.14757 27.4476C9.21911 27.4476 9.29143 27.4377 9.36385 27.4185C9.4196 27.4027 15.0386 25.9247 19.7711 27.0351C20.216 27.1391 20.666 26.8621 20.7708 26.4146C20.8754 25.968 20.5977 25.5205 20.1502 25.4158Z" fill="black"/>
<path fill-rule="evenodd" clip-rule="evenodd" d="M20.1502 35.3962C15.0144 34.1911 9.17827 35.7264 8.93295 35.7921C8.48968 35.911 8.22603 36.3669 8.34494 36.8109C8.44474 37.1827 8.78071 37.4281 9.14757 37.4281C9.21911 37.4281 9.29143 37.4182 9.36385 37.399C9.4196 37.3832 15.0386 35.9052 19.7711 37.0155C20.216 37.1186 20.666 36.8425 20.7708 36.3951C20.8754 35.9485 20.5977 35.501 20.1502 35.3962Z" fill="black"/>
<path fill-rule="evenodd" clip-rule="evenodd" d="M20.1502 30.4061C15.0144 29.201 9.17827 30.7355 8.93295 30.802C8.48968 30.921 8.22603 31.3768 8.34494 31.8209C8.44474 32.1926 8.78071 32.438 9.14757 32.438C9.21911 32.438 9.29143 32.4281 9.36385 32.4089C9.4196 32.3931 15.0386 30.9151 19.7711 32.0254C20.216 32.1294 20.666 31.8524 20.7708 31.405C20.8754 30.9584 20.5977 30.5109 20.1502 30.4061Z" fill="black"/>
</svg>
