<svg width="22" height="23" viewBox="0 0 22 23" fill="none" xmlns="http://www.w3.org/2000/svg">
<path fill-rule="evenodd" clip-rule="evenodd" d="M21.872 11.1058C21.872 5.05313 17.0023 0.144531 10.9925 0.144531C4.98289 0.144531 0.113281 5.05319 0.113281 11.1058C0.113281 17.1582 4.983 22.0668 10.9925 22.0668C17.0023 22.0668 21.872 17.1582 21.872 11.1058ZM1.41328 11.1058C1.41328 5.76884 5.70319 1.44453 10.9925 1.44453C16.282 1.44453 20.572 5.76879 20.572 11.1058C20.572 16.4425 16.282 20.7668 10.9925 20.7668C5.70329 20.7668 1.41328 16.4425 1.41328 11.1058ZM17.2361 12.9084C17.2361 10.4405 13.9673 8.18536 9.34429 7.70059L9.32513 7.70186C8.96622 7.70186 8.67523 7.41095 8.67513 7.05204L8.67474 5.6385L4.7513 9.10408L8.67507 12.5764L8.67467 11.1018C8.67457 10.7258 8.99253 10.4282 9.3677 10.4531C13.0499 10.6973 15.8118 12.3397 15.8118 14.5735C15.8118 15.0605 15.6797 15.5292 15.4318 15.9671C16.5996 15.0743 17.236 14.0046 17.2361 12.9084ZM13.2925 18.5472C16.5378 17.3756 18.536 15.289 18.5361 12.9084C18.5361 9.71838 14.9257 7.12445 9.97497 6.46652L9.97467 5.41232C9.97467 4.44553 8.87593 3.85098 8.07061 4.44119L3.84705 8.17183C3.23797 8.61547 3.23817 9.59487 3.89229 10.0763L8.02469 13.7331C8.83011 14.3274 9.97513 13.8177 9.97513 12.7989L9.97487 11.8158C12.6844 12.151 14.5118 13.3328 14.5118 14.5735C14.5118 15.3414 13.8289 16.1545 12.5516 16.7618C11.4537 17.2852 12.1324 18.9564 13.288 18.5488L13.2925 18.5472Z" fill="#FF3366"/>
</svg>
