<svg width="20" height="22" viewBox="0 0 20 22" fill="none" xmlns="http://www.w3.org/2000/svg">
<path d="M12.6284 15.0005C12.9548 15.0005 13.2193 15.265 13.2193 15.5914C13.2193 15.9177 12.9548 16.1823 12.6284 16.1823H4.3295C4.00315 16.1823 3.73859 15.9177 3.73859 15.5914C3.73859 15.265 4.00315 15.0005 4.3295 15.0005H12.6284Z" fill="#FF3366"/>
<path d="M12.6284 12.5005C12.9548 12.5005 13.2193 12.765 13.2193 13.0914C13.2193 13.4177 12.9548 13.6823 12.6284 13.6823H4.3295C4.00315 13.6823 3.73859 13.4177 3.73859 13.0914C3.73859 12.765 4.00315 12.5005 4.3295 12.5005H12.6284Z" fill="#FF3366"/>
<path d="M12.6284 10.0005C12.9548 10.0005 13.2193 10.265 13.2193 10.5914C13.2193 10.9177 12.9548 11.1823 12.6284 11.1823H4.3295C4.00315 11.1823 3.73859 10.9177 3.73859 10.5914C3.73859 10.265 4.00315 10.0005 4.3295 10.0005H12.6284Z" fill="#FF3366"/>
<path d="M8.93999 7.50049C9.26634 7.50049 9.5309 7.76505 9.5309 8.0914C9.5309 8.41775 9.26634 8.68231 8.93999 8.68231H4.3295C4.00315 8.68231 3.73859 8.41775 3.73859 8.0914C3.73859 7.76505 4.00315 7.50049 4.3295 7.50049H8.93999Z" fill="#FF3366"/>
<path d="M16.5337 0.833862C16.8601 0.833854 17.1246 1.09841 17.1247 1.42476C17.1247 1.75111 16.8601 2.01567 16.5338 2.01568L3.5402 2.01601C3.21385 2.01602 2.94929 1.75147 2.94928 1.42512C2.94927 1.09877 3.21382 0.834204 3.54017 0.834196L16.5337 0.833862Z" fill="#1476CC"/>
<path fill-rule="evenodd" clip-rule="evenodd" d="M3.54019 2.01568V0.833862C2.75231 0.833862 2.75231 2.01568 3.54019 2.01568ZM3.54019 6.17251H16.5337C18.037 6.17251 19.2622 4.98124 19.2622 3.50319C19.2622 2.02525 18.0369 0.833862 16.5337 0.833862H3.54019C4.48264 0.833862 5.3158 1.30212 5.80629 2.01568H3.54019C4.39807 2.01568 5.08688 2.68547 5.08688 3.50319C5.08688 4.321 4.39813 4.9907 3.54019 4.9907C2.75231 4.9907 2.75231 6.17251 3.54019 6.17251ZM5.80634 4.9907H16.5337C17.3916 4.9907 18.0804 4.321 18.0804 3.50319C18.0804 2.68547 17.3915 2.01568 16.5337 2.01568H5.80629C6.09817 2.44031 6.2687 2.95181 6.2687 3.50319C6.2687 4.05459 6.09819 4.56608 5.80634 4.9907ZM5.80634 4.9907C5.31586 5.70428 4.48269 6.17251 3.54019 6.17251V4.9907H5.80634Z" fill="#FF3366"/>
<path d="M0.850016 3.54304C0.849139 3.52987 0.848694 3.51658 0.848694 3.50319C0.848694 2.03008 2.03489 0.833862 3.50084 0.833862C3.82719 0.833862 4.09175 1.09842 4.09175 1.42477C4.09175 1.75112 3.82719 2.01568 3.50084 2.01568C2.70097 2.01568 2.04865 2.66243 2.03088 3.46939C2.03151 3.48057 2.03183 3.49184 2.03183 3.50319V18.113L3.43082 19.62L5.47254 17.4204C5.70632 17.1685 6.10489 17.1685 6.3387 17.4203L8.45661 19.7017L10.5743 17.4203C10.8081 17.1685 11.2066 17.1685 11.4404 17.4203L13.5622 19.7058L14.8994 18.2907V5.5816C14.8994 5.25525 15.164 4.9907 15.4903 4.9907C15.8167 4.9907 16.0813 5.25525 16.0813 5.5816V18.5258C16.0813 18.6767 16.0235 18.8219 15.9198 18.9316L13.9878 20.976C13.7533 21.2243 13.3577 21.2225 13.1253 20.9722L11.0074 18.6909L8.88971 20.9722C8.65592 21.2241 8.25737 21.2241 8.02357 20.9722L5.90568 18.6909L3.86394 20.8906C3.63015 21.1425 3.23157 21.1425 2.99777 20.8906L1.07492 18.8192C0.93793 18.711 0.850016 18.5434 0.850016 18.3553V3.54304Z" fill="#FF3366"/>
</svg>
