<svg width="17" height="17" viewBox="0 0 17 17" fill="none" xmlns="http://www.w3.org/2000/svg">
<path fill-rule="evenodd" clip-rule="evenodd" d="M15.4886 4.19634C15.5635 4.12072 15.6071 4.01809 15.607 3.91034C15.607 3.80316 15.5633 3.70047 15.4886 3.62441L13.4393 1.57572C13.3603 1.49684 13.2566 1.45709 13.1528 1.45703C13.0492 1.45722 12.9456 1.49659 12.8671 1.57591C12.8671 1.57591 5.2384 9.20422 5.23327 9.20928C5.13909 9.30347 3.80784 12.6563 3.75802 12.7798C3.69659 12.9305 3.73171 13.1023 3.84684 13.2172C3.96065 13.3313 4.13296 13.3672 4.28427 13.3063C4.40252 13.2585 7.76534 11.9217 7.85415 11.8302C7.90971 11.7745 15.4329 4.25147 15.4886 4.19634V4.19634Z" stroke="#FF9001" stroke-width="1.2" stroke-linecap="round" stroke-linejoin="round"/>
<path d="M5.23328 9.20947L7.85409 11.8303" stroke="#FF9001" stroke-width="1.2" stroke-linecap="round" stroke-linejoin="round"/>
<path d="M4.00024 12.1797L4.88718 13.0666" stroke="#FF9001" stroke-width="0.936" stroke-linecap="round" stroke-linejoin="round"/>
<path d="M12.5625 9.125V14.75C12.5625 15.3023 12.3941 15.6875 11.8418 15.6875H2.25C1.69769 15.6875 1.3125 15.3023 1.3125 14.75V5.22325C1.3125 4.63744 1.72925 4.4375 2.31506 4.4375H7.875" stroke="#FF9001" stroke-width="1.2" stroke-linecap="round" stroke-linejoin="round"/>
</svg>
