<svg width="144" height="111" viewBox="0 0 144 111" fill="none" xmlns="http://www.w3.org/2000/svg">
<mask id="mask0" mask-type="alpha" maskUnits="userSpaceOnUse" x="0" y="0" width="144" height="111">
<rect width="144" height="111" fill="white"/>
</mask>
<g mask="url(#mask0)">
<path fill-rule="evenodd" clip-rule="evenodd" d="M79.2762 90.8703C78.6607 90.7087 78.027 90.5602 77.4065 90.4299C74.8259 89.925 66.2071 87.1655 72.0567 73.811C78.854 58.2183 87.5094 49.7159 92.9486 48.061C98.2709 46.4356 101.063 46.3168 107.515 59.3118C107.833 59.9391 108.181 60.5713 108.548 61.1904L128.176 93.31C128.176 93.31 132.584 99.6821 123.79 100.261C115.936 100.764 85.6668 92.6198 79.2762 90.8703ZM96.7207 63.0036C93.7631 69.331 89.6421 75.0094 84.6556 79.8776C79.9014 84.494 74.2783 88.8285 72.904 84.9565C70.4351 77.9779 79.2422 62.1426 90.4399 51.9592C95.1034 47.7131 100.25 48.8167 99.8378 53.5438C99.5913 56.2135 98.2481 59.7353 96.7207 63.0036Z" fill="black"/>
<path d="M79.2762 90.8703L79.4082 90.388L79.4032 90.3867L79.2762 90.8703ZM77.4065 90.4299L77.5093 89.9405L77.5025 89.9392L77.4065 90.4299ZM72.0567 73.811L72.5147 74.0116L72.5151 74.0108L72.0567 73.811ZM92.9486 48.061L93.0941 48.5393L93.0946 48.5392L92.9486 48.061ZM107.515 59.3118L107.067 59.5342L107.069 59.5375L107.515 59.3118ZM108.548 61.1904L108.118 61.4453L108.121 61.4511L108.548 61.1904ZM128.176 93.31L127.749 93.5707L127.757 93.5828L127.765 93.5945L128.176 93.31ZM123.79 100.261L123.821 100.76L123.822 100.76L123.79 100.261ZM96.7207 63.0036L97.1736 63.2153L97.1736 63.2153L96.7207 63.0036ZM84.6556 79.8776L85.004 80.2363L85.0049 80.2353L84.6556 79.8776ZM72.904 84.9565L72.4327 85.1232L72.4328 85.1237L72.904 84.9565ZM90.4399 51.9592L90.7763 52.3291L90.7765 52.3289L90.4399 51.9592ZM99.8378 53.5438L100.336 53.5898L100.336 53.5873L99.8378 53.5438ZM79.4032 90.3867C78.7791 90.2228 78.1373 90.0725 77.5093 89.9406L77.3038 90.9192C77.9167 91.048 78.5423 91.1946 79.1492 91.3539L79.4032 90.3867ZM77.5025 89.9392C76.2514 89.6944 73.6089 88.9122 71.9759 86.6467C70.3718 84.4214 69.6296 80.5981 72.5147 74.0116L71.5988 73.6103C68.6342 80.3783 69.2765 84.6121 71.1646 87.2314C73.0237 89.8105 75.9809 90.6605 77.3105 90.9206L77.5025 89.9392ZM72.5151 74.0108C75.8966 66.2537 79.7344 60.2742 83.3905 56.0359C87.0581 51.7843 90.5062 49.3268 93.0941 48.5393L92.8031 47.5826C89.9518 48.4502 86.3526 51.0712 82.6333 55.3827C78.9026 59.7075 75.0141 65.7756 71.5984 73.6112L72.5151 74.0108ZM93.0946 48.5392C95.7561 47.7264 97.5772 47.3671 99.5381 48.6247C100.546 49.2712 101.622 50.3657 102.856 52.1296C104.088 53.8913 105.459 56.2956 107.067 59.5342L107.963 59.0894C106.345 55.8305 104.948 53.3765 103.675 51.5565C102.404 49.7386 101.24 48.5279 100.078 47.7829C97.6993 46.2575 95.4634 46.7702 92.8026 47.5828L93.0946 48.5392ZM107.069 59.5375C107.392 60.1755 107.746 60.8174 108.118 61.4452L108.978 60.9355C108.617 60.3252 108.273 59.7027 107.961 59.0861L107.069 59.5375ZM108.121 61.4511L127.749 93.5707L128.603 93.0493L108.975 60.9297L108.121 61.4511ZM128.176 93.31C127.765 93.5945 127.765 93.5943 127.765 93.5941C127.765 93.5941 127.765 93.594 127.765 93.594C127.765 93.5939 127.765 93.5939 127.765 93.594C127.765 93.5943 127.765 93.5949 127.766 93.5959C127.767 93.5978 127.77 93.6013 127.773 93.6062C127.779 93.616 127.79 93.6315 127.803 93.6524C127.83 93.6942 127.87 93.7573 127.918 93.8388C128.014 94.0022 128.143 94.2376 128.272 94.5217C128.534 95.0978 128.78 95.8377 128.781 96.5692C128.782 97.2807 128.555 97.9778 127.867 98.5447C127.158 99.1293 125.904 99.6204 123.757 99.7617L123.822 100.76C126.072 100.612 127.565 100.089 128.503 99.3164C129.462 98.5258 129.782 97.5214 129.781 96.5676C129.779 95.6337 129.472 94.7444 129.183 94.1076C129.036 93.7853 128.89 93.5184 128.779 93.331C128.724 93.2372 128.677 93.1629 128.644 93.111C128.627 93.0851 128.614 93.0648 128.604 93.0504C128.599 93.0432 128.596 93.0375 128.593 93.0334C128.591 93.0313 128.59 93.0296 128.589 93.0283C128.589 93.0276 128.588 93.0271 128.588 93.0266C128.588 93.0264 128.588 93.0261 128.588 93.026C128.587 93.0257 128.587 93.0255 128.176 93.31ZM123.758 99.7616C121.863 99.883 118.555 99.4805 114.508 98.7594C110.478 98.0416 105.768 97.0184 101.098 95.9234C91.7595 93.7337 82.6014 91.2622 79.4082 90.388L79.1442 91.3526C82.3416 92.2279 91.5135 94.7031 100.87 96.897C105.548 97.9938 110.278 99.0216 114.332 99.7439C118.369 100.463 121.79 100.89 123.821 100.76L123.758 99.7616ZM96.2677 62.7918C93.3371 69.0616 89.2523 74.6912 84.3064 79.5198L85.0049 80.2353C90.0319 75.3276 94.1891 69.6004 97.1736 63.2153L96.2677 62.7918ZM84.3073 79.5189C81.9334 81.8239 79.3809 84.0191 77.2742 85.1606C76.2117 85.7362 75.3384 86.0009 74.6928 85.9473C74.3835 85.9216 74.1328 85.8236 73.9268 85.6536C73.7176 85.481 73.5243 85.2092 73.3753 84.7892L72.4328 85.1237C72.6273 85.6717 72.9104 86.1114 73.2903 86.4249C73.6734 86.741 74.1246 86.9035 74.61 86.9439C75.5538 87.0223 76.6412 86.6408 77.7505 86.0398C79.9875 84.8279 82.6236 82.5476 85.004 80.2363L84.3073 79.5189ZM73.3754 84.7897C72.8055 83.1788 72.8697 80.9933 73.5129 78.4094C74.1534 75.8364 75.3539 72.9243 76.987 69.897C80.2534 63.8421 85.2197 57.3824 90.7763 52.3291L90.1035 51.5893C84.4624 56.7194 79.4263 63.269 76.1069 69.4222C74.4471 72.499 73.209 75.4907 72.5426 78.1678C71.8789 80.8339 71.7681 83.2448 72.4327 85.1232L73.3754 84.7897ZM90.7765 52.3289C93.0384 50.2694 95.3391 49.5802 96.9513 49.8782C97.7486 50.0256 98.378 50.4111 98.7911 50.994C99.2059 51.5793 99.4348 52.4099 99.3397 53.5004L100.336 53.5873C100.447 52.3142 100.187 51.2342 99.607 50.4158C99.0252 49.5948 98.1538 49.0835 97.1331 48.8949C95.1092 48.5208 92.5048 49.4028 90.1032 51.5895L90.7765 52.3289ZM99.3399 53.4979C99.102 56.074 97.7933 59.5275 96.2677 62.7919L97.1736 63.2153C98.7029 59.9432 100.08 56.3531 100.336 53.5898L99.3399 53.4979Z" fill="black"/>
<path fill-rule="evenodd" clip-rule="evenodd" d="M36.0513 51.4869C37.9119 50.1351 38.3243 47.531 36.9725 45.6704C35.6207 43.8098 33.0166 43.3973 31.156 44.7491C29.2954 46.1009 28.883 48.7051 30.2348 50.5657C31.5865 52.4263 34.1907 52.8387 36.0513 51.4869Z" fill="black"/>
<path fill-rule="evenodd" clip-rule="evenodd" d="M89.8872 29.336C91.7478 27.9842 92.1603 25.3801 90.8085 23.5195C89.4567 21.6589 86.8525 21.2465 84.9919 22.5983C83.1314 23.9501 82.7189 26.5542 84.0707 28.4148C85.4225 30.2754 88.0266 30.6878 89.8872 29.336Z" fill="black"/>
<path fill-rule="evenodd" clip-rule="evenodd" d="M48.5433 37.0693C49.2935 36.5242 49.4598 35.4741 48.9147 34.7239C48.3697 33.9736 47.3196 33.8073 46.5694 34.3524C45.8191 34.8975 45.6528 35.9475 46.1979 36.6978C46.743 37.448 47.793 37.6143 48.5433 37.0693Z" fill="black"/>
<path fill-rule="evenodd" clip-rule="evenodd" d="M100.217 31.517C100.967 30.9719 101.134 29.9219 100.589 29.1716C100.043 28.4214 98.9934 28.2551 98.2432 28.8002C97.493 29.3452 97.3266 30.3953 97.8717 31.1455C98.4168 31.8958 99.4669 32.0621 100.217 31.517Z" fill="black"/>
<path fill-rule="evenodd" clip-rule="evenodd" d="M64.4964 85.0033C65.2466 84.4583 65.4129 83.4082 64.8679 82.658C64.3228 81.9077 63.2727 81.7414 62.5225 82.2865C61.7722 82.8316 61.6059 83.8816 62.151 84.6319C62.6961 85.3821 63.7462 85.5484 64.4964 85.0033Z" fill="black"/>
<path fill-rule="evenodd" clip-rule="evenodd" d="M53.1565 89.6181C53.9068 89.073 54.0731 88.0229 53.528 87.2727C52.9829 86.5225 51.9329 86.3562 51.1826 86.9012C50.4324 87.4463 50.2661 88.4964 50.8112 89.2466C51.3563 89.9968 52.4063 90.1632 53.1565 89.6181Z" fill="#F3747E"/>
<path fill-rule="evenodd" clip-rule="evenodd" d="M50.6526 55.3227C51.4029 54.7776 51.5692 53.7275 51.0241 52.9773C50.479 52.2271 49.429 52.0607 48.6787 52.6058C47.9285 53.1509 47.7622 54.201 48.3073 54.9512C48.8523 55.7014 49.9024 55.8677 50.6526 55.3227Z" fill="#F3747E"/>
<path fill-rule="evenodd" clip-rule="evenodd" d="M85.4046 14.0243C86.1548 13.4792 86.3211 12.4292 85.7761 11.679C85.231 10.9287 84.1809 10.7624 83.4307 11.3075C82.6805 11.8526 82.5141 12.9026 83.0592 13.6529C83.6043 14.4031 84.6544 14.5694 85.4046 14.0243Z" fill="#F3747E"/>
<path fill-rule="evenodd" clip-rule="evenodd" d="M60.0956 3.60462C60.6957 3.16856 60.8288 2.32851 60.3927 1.72832C59.9567 1.12813 59.1166 0.995078 58.5164 1.43114C57.9162 1.8672 57.7832 2.70725 58.2192 3.30744C58.6553 3.90763 59.4954 4.04068 60.0956 3.60462Z" fill="#F3747E"/>
<path fill-rule="evenodd" clip-rule="evenodd" d="M54.3354 75.2836C52.9407 76.2969 51.7043 76.9185 50.1537 76.9934L50.1356 77.0066C48.8542 78.8232 46.6017 80.2936 44.3333 80.7518C42.0336 81.205 39.5385 80.6655 37.4767 79.3132C37.4636 79.2951 37.4455 79.3082 37.4274 79.3214C35.4364 81.266 32.9324 82.1998 30.6414 81.7888C30.485 81.764 30.3155 81.7212 30.1772 81.6832C27.3317 80.928 24.8621 78.7097 23.6668 75.7315C22.8596 73.7444 23.3006 70.6567 24.4916 68.6014C24.9281 67.8691 25.3167 67.6422 25.7099 67.9929C25.8641 68.1411 25.7902 68.5768 25.6819 69.2145C25.4678 70.476 25.1195 72.5284 26.1363 74.7121C27.1377 76.8903 28.8274 78.5684 30.8566 79.1142C30.9323 79.1422 31.0261 79.157 31.1199 79.1719C32.6917 79.4689 34.2311 78.6549 35.3806 77.5707C35.3987 77.5576 35.4036 77.5263 35.3724 77.5213C33.8852 75.7792 33.088 73.425 33.303 71.3594C33.5212 69.3744 35.0759 67.553 36.7731 67.2608C38.1558 67.031 39.3932 67.8201 40.0822 69.3397C41.1181 71.6034 40.7282 74.571 39.1304 77.1709C39.1122 77.184 39.1254 77.2022 39.1386 77.2203C40.5718 78.0884 42.2637 78.4365 43.7683 78.1459C44.9766 77.9045 46.223 77.2204 47.1451 76.3566C47.1632 76.3435 47.1682 76.3122 47.1369 76.3073C47.0481 76.2611 46.9461 76.1969 46.8441 76.1327L46.844 76.1326C46.0147 75.6006 44.9897 74.6849 44.6924 73.3235C44.3623 71.7646 45.0098 70.4086 46.3384 69.9138C47.7707 69.3713 49.4624 70.0239 50.2913 71.4695C50.7584 72.2648 50.995 73.1998 51.0077 74.1315C51.0028 74.1627 51.034 74.1677 51.0653 74.1726C52.5815 73.7075 54.0158 72.4441 54.8458 71.4536C55.3201 70.8876 55.7022 70.4993 56.2682 70.9736C56.3439 71.0017 57.3934 72.37 54.3354 75.2836ZM47.9305 72.4099C47.687 72.2271 47.361 72.464 47.4102 72.7603C47.4972 73.2228 48.0171 73.786 48.7576 74.2719C48.6936 73.7649 48.5358 73.2431 48.2957 72.8364C48.1822 72.6421 48.0589 72.5104 47.9305 72.4099ZM36.004 71.6108C36.0586 70.9623 36.5115 70.3288 36.91 70.0393C37.0187 69.9604 37.1224 69.9127 37.2393 69.8831C37.3381 69.8667 37.5091 70.1022 37.6653 70.4314C38.2721 71.7617 38.0655 73.5722 37.1396 75.2688C37.1034 75.2951 37.0721 75.2902 37.0589 75.2721C36.3056 74.159 35.8832 72.7778 36.004 71.6108Z" fill="#F3737E"/>
<path fill-rule="evenodd" clip-rule="evenodd" d="M73.0771 37.8134C72.3808 37.9596 71.953 37.5232 71.5485 36.7378C71.3446 36.3049 70.231 34.734 69.948 34.4969C69.5627 34.8045 69.156 35.0446 68.7905 35.2271C67.419 35.8915 66.1203 35.8941 65.2483 35.2271C64.1903 34.4184 63.7234 33.3187 63.9329 32.1978C64.1656 31.0326 65.1438 30.0174 66.4344 29.6609C67.6757 29.3125 68.9611 29.5963 69.9516 30.4263C70.5545 29.3518 71.0836 27.8327 71.0747 25.7637C71.0923 23.4264 69.9953 21.6498 68.0945 20.9C67.8408 21.3887 67.5558 21.8725 67.2 22.297C66.1591 23.6068 64.7876 24.5756 63.2582 25.0226C61.477 25.5419 59.9727 25.2235 59.2951 24.1384C58.9233 23.5506 58.5618 22.2913 60.1873 20.5292C61.7765 18.7934 64.0254 17.8513 66.2508 17.8672C66.3201 17.4294 66.3631 16.9554 66.3354 16.422C66.2921 13.9629 65.6148 12.2688 64.3297 11.3761C63.1203 10.5113 61.5386 10.2769 60.0934 10.1922L60.0934 10.1922C59.7132 10.1641 59.333 10.1359 58.961 10.1571C58.6384 10.1701 58.3108 10.2144 58.0145 10.2637C57.5256 10.3144 56.8575 10.0804 56.7359 9.53222C56.6817 9.26718 56.807 8.98249 56.998 8.78835C57.5013 8.30009 58.4282 8.15566 59.1482 8.04347C59.2409 8.02902 59.3302 8.01511 59.4147 8.00107C60.5818 7.81727 61.8048 7.78658 62.97 8.01923C64.0152 8.20079 65.0125 8.58313 65.8944 9.18764C67.9151 10.5976 68.9706 13.0408 69.0316 16.4003C69.0526 17.0768 68.998 17.7253 68.8808 18.3639C68.9031 18.3754 68.9298 18.3837 68.9565 18.3919L68.9565 18.3919L68.9566 18.3919C68.9833 18.4002 69.01 18.4084 69.0322 18.4199C71.9747 19.5752 73.7198 22.3199 73.7165 25.7814C73.7086 28.6652 72.873 30.905 71.7513 32.5225C73.1216 34.2943 73.7116 36.1348 73.728 36.2336C74.0124 36.9678 73.6928 37.6705 73.0771 37.8134ZM66.8443 33.0436C67.05 33.0602 67.567 32.9337 68.219 32.4599C67.834 32.1585 67.462 32.1798 67.192 32.2652C66.8413 32.3539 66.6272 32.5925 66.6074 32.7176C66.5844 32.762 66.6584 32.902 66.8443 33.0436ZM63.8803 21.8033C63.1789 22.2852 62.5039 22.4989 62.0282 22.5678C62.0693 22.5102 62.1286 22.4395 62.1879 22.3687C62.9801 21.5165 64.0009 20.9408 65.0659 20.6928C64.6641 21.2062 64.2376 21.5714 63.8803 21.8033Z" fill="#F3737E"/>
<path fill-rule="evenodd" clip-rule="evenodd" d="M80.8179 62.7126C83.1726 64.2396 85.907 63.4706 88.1892 61.8125C88.3341 61.7072 88.4971 61.5888 88.7226 61.4803L88.8132 61.4145C89.3714 60.9259 89.3569 60.4107 89.0937 60.0484C88.6413 59.4639 87.9713 59.6462 87.4131 60.1348L87.3406 60.1875C85.8932 61.4328 83.783 61.4993 82.2362 60.4369C82.9203 58.4455 82.6348 56.6052 81.4257 55.1314C80.9946 54.6144 80.3314 54.349 79.6582 54.4508C78.9717 54.5344 78.4053 54.9736 78.1318 55.5874C77.1629 57.7581 78.0163 59.6563 78.9111 60.8879C78.305 61.5773 77.4555 62.0839 76.5221 62.2085C75.3419 62.3742 74.3396 62.0231 73.5679 61.5323C75.3752 58.116 75.7281 53.1551 73.4329 51.2529C71.6904 49.8069 70.0228 50.2159 69.0513 51.0879C67.1493 52.7741 66.7589 56.9597 69.384 61.0299C69.4317 61.1336 69.6504 61.4728 70.0156 61.8993C68.7789 63.1299 67.3155 63.3629 65.6254 62.5984C64.6561 62.1403 63.761 61.5177 63.0519 60.7322C61.7441 59.2749 61.1376 57.3356 61.0414 55.413C61.0007 54.5571 61.09 53.6897 61.2681 52.8684C61.3985 52.2479 61.5833 51.2835 60.8625 50.977C60.3062 50.7446 59.9522 51.0572 59.6819 51.7517C59.6798 51.7584 59.6744 51.7737 59.6662 51.797C59.5434 52.1428 58.7902 54.2658 58.9108 56.8226C59.0231 59.453 60.0979 62.9891 64.4918 64.9994C67.2581 66.2549 69.9348 65.7492 71.9636 63.6664C73.1961 64.4867 74.8435 65.1162 76.8632 64.811C78.4205 64.5929 79.8068 63.8347 80.8179 62.7126ZM70.7721 53.0754L70.8264 53.0359C70.9351 52.957 71.1557 52.8797 71.6641 53.3129C72.4555 53.9832 72.6088 56.8605 71.5081 59.459C69.5015 56.2401 70.1545 53.6348 70.7721 53.0754Z" fill="#F3737E"/>
<path fill-rule="evenodd" clip-rule="evenodd" d="M113.256 94.4089C110.908 93.9568 108.574 93.4108 106.253 92.883L104.509 92.4624L102.764 92.0419C101.591 91.7598 100.435 91.4647 99.28 91.1695C96.9692 90.5791 94.6635 89.9574 92.3627 89.3045C90.08 88.6385 87.7842 87.9543 85.5032 87.1763C85.2892 87.1103 85.1807 86.8848 85.2598 86.6889C85.3208 86.5063 85.5151 86.3928 85.7027 86.4225C88.0563 86.8433 90.3769 87.3712 92.7107 87.9171C95.0263 88.4762 97.3551 89.0534 99.6609 89.6751C100.816 89.9703 101.967 90.2967 103.117 90.6232L104.852 91.1063L106.568 91.6026C108.869 92.2555 111.147 92.9528 113.433 93.6996C113.647 93.7655 113.755 93.991 113.676 94.1869C113.651 94.3432 113.457 94.4567 113.256 94.4089Z" fill="white" stroke="white"/>
<path fill-rule="evenodd" clip-rule="evenodd" d="M121.506 95.4433C120.486 95.1054 119.434 94.7625 118.391 94.469C118.07 94.3701 117.713 94.602 117.676 94.9329C117.65 95.2011 117.834 95.4547 118.111 95.5306C119.195 95.7665 120.248 95.9974 121.338 96.202C121.539 96.2499 121.751 96.1232 121.786 95.9043C121.847 95.7216 121.702 95.5224 121.506 95.4433Z" fill="white" stroke="white"/>
<path fill-rule="evenodd" clip-rule="evenodd" d="M80.4111 59.7153C80.3781 59.8223 80.2168 59.8288 80.2004 59.7301C79.9423 59.032 79.4163 57.394 80.1028 57.3104C80.9999 57.2121 80.6237 58.9797 80.4111 59.7153Z" fill="white"/>
</g>
</svg>
