<svg width="52" height="50" viewBox="0 0 52 50" fill="none" xmlns="http://www.w3.org/2000/svg">
<path d="M35.2529 11.4948C36.2624 13.7142 36.8246 16.1775 36.8246 18.7712C36.8246 28.5462 28.8417 36.4704 18.9943 36.4704C9.14696 36.4704 1.16406 28.5462 1.16406 18.7712C1.16406 9.60709 8.18018 2.06978 17.1713 1.16333" stroke="#231F20" stroke-width="2" stroke-linecap="round" stroke-linejoin="round"/>
<path d="M35.0673 11.0979C35.1311 11.2292 35.1933 11.3614 35.2538 11.4946" stroke="#231F20" stroke-width="1.64474" stroke-linecap="round" stroke-linejoin="round"/>
<path d="M30.0391 4.87549C31.1348 5.73492 32.1262 6.71908 32.9924 7.80675" stroke="#231F20" stroke-width="2" stroke-linecap="round" stroke-linejoin="round"/>
<path fill-rule="evenodd" clip-rule="evenodd" d="M32.9931 18.7711C32.9931 26.4449 26.7263 32.6656 18.9957 32.6656C11.2648 32.6656 4.99805 26.4449 4.99805 18.7711C4.99805 11.0973 11.2648 4.87622 18.9957 4.87622C26.7263 4.87622 32.9931 11.0973 32.9931 18.7711Z" fill="#FF9037"/>
<path fill-rule="evenodd" clip-rule="evenodd" d="M33.2949 35.5833C35.4393 37.7991 43.6614 46.8773 46.1308 48.3588C46.1462 48.3679 46.1617 48.3771 46.1772 48.3862C49.167 50.1518 52.6772 45.8203 49.9133 43.7233C43.3344 38.7313 35.5492 33.2571 35.3887 33.4226L33.2949 35.5833Z" stroke="#231F20" stroke-width="2" stroke-linecap="round" stroke-linejoin="round"/>
<path fill-rule="evenodd" clip-rule="evenodd" d="M27.8223 34.4145L30.3992 37.015C30.3992 37.015 34.19 36.186 36.8242 31.1476L33.8713 28.6265C33.8713 28.6265 31.8696 32.8008 27.8223 34.4145Z" stroke="#231F20" stroke-width="2" stroke-linecap="round" stroke-linejoin="round"/>
<path d="M12.0626 27.0991C9.85467 24.4849 8.52539 21.1145 8.52539 17.4361C8.52539 16.7154 8.57638 16.0065 8.67506 15.313" stroke="#231F20" stroke-width="2" stroke-linecap="round" stroke-linejoin="round"/>
</svg>
