<svg width="24" height="25" viewBox="0 0 24 25" fill="none" xmlns="http://www.w3.org/2000/svg">
<path fill-rule="evenodd" clip-rule="evenodd" d="M19.4541 5.0494H20.0959C22.1301 5.0494 23.7864 6.68318 23.7864 8.68967V14.5611C23.7864 16.5675 22.1301 18.2013 20.0959 18.2013H19.4489V22.8168C19.4489 23.8174 18.6207 24.6343 17.6063 24.6343H6.16215C5.14766 24.6343 4.3195 23.8174 4.3195 22.8168V18.2013H3.73979C1.70563 18.2013 0.0493164 16.5675 0.0493164 14.5611V8.68967C0.0493164 6.68318 1.70563 5.0494 3.73979 5.0494H4.32468V3.64027C4.32468 1.63378 5.98099 0 8.01515 0H15.7636C17.7978 0 19.4541 1.63378 19.4541 3.64027V5.0494ZM8.00998 1.3785C6.74704 1.3785 5.71702 2.39451 5.71702 3.64027V5.0494H18.0462V3.64027C18.0462 2.39451 17.0162 1.3785 15.7533 1.3785H8.00998ZM18.0514 22.827C18.0514 23.0669 17.8495 23.266 17.6063 23.266H6.16215C5.91888 23.266 5.71702 23.0669 5.71702 22.827V15.2146H18.0514V22.827ZM20.0959 16.8279C21.3588 16.8279 22.3889 15.8119 22.3889 14.5662V8.69477C22.3889 7.44901 21.3588 6.43301 20.0959 6.43301H3.73979C2.47685 6.43301 1.44683 7.44901 1.44683 8.69477V14.5662C1.44683 15.8119 2.47685 16.8279 3.73979 16.8279H4.32468V15.2146H3.29466C2.90646 15.2146 2.5959 14.9082 2.5959 14.5253C2.5959 14.1424 2.90646 13.8361 3.29466 13.8361H20.3754C20.7636 13.8361 21.0742 14.1424 21.0742 14.5253C21.0742 14.9082 20.7636 15.2146 20.3754 15.2146H19.4541V16.8279H20.0959Z" fill="#999999"/>
<path d="M7.40921 18.6046H16.3067C16.6949 18.6046 17.0055 18.2982 17.0055 17.9153C17.0055 17.5324 16.6949 17.2261 16.3067 17.2261H7.40921C7.02101 17.2261 6.71045 17.5324 6.71045 17.9153C6.71045 18.2982 7.02618 18.6046 7.40921 18.6046Z" fill="#999999"/>
<path d="M16.3637 20.0444H7.46096C7.07277 20.0444 6.76221 20.3508 6.76221 20.7337C6.76221 21.1166 7.07277 21.4229 7.46096 21.4229H16.3585C16.7467 21.4229 17.0572 21.1166 17.0572 20.7337C17.0572 20.3508 16.7467 20.0444 16.3637 20.0444Z" fill="#999999"/>
<path d="M20.0804 7.75537H18.6621C18.2739 7.75537 17.9634 8.0617 17.9634 8.44462C17.9634 8.82754 18.2739 9.13387 18.6621 9.13387H20.0804C20.4686 9.13387 20.7791 8.82754 20.7791 8.44462C20.7791 8.0617 20.4686 7.75537 20.0804 7.75537Z" fill="#999999"/>
</svg>
