<?xml version="1.0" encoding="UTF-8"?>
<svg width="15px" height="15px" viewBox="0 0 15 15" version="1.1" xmlns="http://www.w3.org/2000/svg" xmlns:xlink="http://www.w3.org/1999/xlink">
    <!-- Generator: sketchtool 58 (101010) - https://sketch.com -->
    <title>6889B3CE-2E3B-4874-BA9A-125AA597C4FB</title>
    <desc>Created with sketchtool.</desc>
    <g id="Page-1" stroke="none" stroke-width="1" fill="none" fill-rule="evenodd">
        <g id="Assets" transform="translate(-256.000000, -7671.000000)">
            <g id="Group-32" transform="translate(252.000000, 7667.000000)">
                <polygon id="Path" points="0 0 24 0 24 24 0 24"></polygon>
                <path d="M17.9449776,4.09465139 C18.4518066,3.80168334 19.087553,4.22940525 18.9879324,4.82120643 L16.8785624,17.4774263 C16.8024022,17.9256617 16.3277882,18.1864147 15.9117679,18.0106338 L12.2613974,16.4813349 L10.4010503,18.7459722 C9.99089499,19.2469647 9.15593605,18.9744816 9.15593605,18.2830884 L9.15593605,15.9246956 L16.2135479,7.32608328 C16.3512199,7.15908576 16.1227106,6.93935973 15.9615782,7.08292551 L7.54461176,14.5008823 L4.4303671,13.1942276 C3.90302461,12.9715833 3.83564768,12.2332981 4.36590841,11.9285999 L17.9449776,4.09465139 Z" id="p" fill="#000000" fill-rule="nonzero"></path>
            </g>
        </g>
    </g>
</svg>