<svg width="21" height="21" viewBox="0 0 21 21" fill="none" xmlns="http://www.w3.org/2000/svg">
<path fill-rule="evenodd" clip-rule="evenodd" d="M20.2622 17.7319L20.2622 3.26814C20.2622 1.87509 19.1329 0.74585 17.7398 0.74585H3.27636C1.88325 0.74585 0.753906 1.87513 0.753906 3.26814V17.7319C0.753906 19.1249 1.88328 20.2542 3.27636 20.2542H17.7397C19.1328 20.2542 20.2622 19.1249 20.2622 17.7319ZM17.7398 2.04585C18.4149 2.04585 18.9622 2.5931 18.9622 3.26814V17.7319C18.9622 18.4069 18.4149 18.9542 17.7397 18.9542H3.27636C2.60122 18.9542 2.05391 18.4069 2.05391 17.7319V3.26814C2.05391 2.59311 2.6012 2.04585 3.27636 2.04585H17.7398Z" fill="#FF3366"/>
<path fill-rule="evenodd" clip-rule="evenodd" d="M9.17044 15.2348V12.0985C9.17044 11.5126 8.69537 11.0375 8.10941 11.0375H4.97322C4.38722 11.0375 3.91211 11.5125 3.91211 12.0985V15.2348C3.91211 15.8208 4.38721 16.2958 4.97322 16.2958H8.10941C8.69537 16.2958 9.17044 15.8208 9.17044 15.2348ZM5.21211 14.9958V12.3375H7.87044V14.9958H5.21211Z" fill="#FF3366"/>
<path d="M16.3889 11.8292C16.7479 11.8292 17.0389 12.1202 17.0389 12.4792C17.0389 12.8382 16.7479 13.1292 16.3889 13.1292H10.9293C10.5703 13.1292 10.2793 12.8382 10.2793 12.4792C10.2793 12.1202 10.5703 11.8292 10.9293 11.8292H16.3889Z" fill="#FF3366"/>
<path d="M16.3888 14.3624C16.7478 14.3624 17.0388 14.6534 17.0388 15.0124C17.0388 15.3714 16.7478 15.6624 16.3888 15.6624H10.9293C10.5703 15.6624 10.2793 15.3714 10.2793 15.0124C10.2793 14.6534 10.5703 14.3624 10.9293 14.3624H16.3888Z" fill="#FF3366"/>
<path fill-rule="evenodd" clip-rule="evenodd" d="M9.17044 8.10941V4.97314C9.17044 4.38716 8.69533 3.91211 8.10933 3.91211H4.97322C4.38721 3.91211 3.91211 4.38708 3.91211 4.97314V8.10941C3.91211 8.6954 4.38722 9.17044 4.97322 9.17044H8.10941C8.69537 9.17044 9.17044 8.69537 9.17044 8.10941ZM5.21211 7.87044V5.21211H7.87044V7.87044H5.21211Z" fill="#FF3366"/>
<path d="M16.3889 4.70374C16.7479 4.70374 17.0389 4.99475 17.0389 5.35374C17.0389 5.71272 16.7479 6.00374 16.3889 6.00374H10.9293C10.5703 6.00374 10.2793 5.71272 10.2793 5.35374C10.2793 4.99475 10.5703 4.70374 10.9293 4.70374H16.3889Z" fill="#FF3366"/>
<path d="M16.3888 7.23706C16.7478 7.23706 17.0388 7.52808 17.0388 7.88706C17.0388 8.24605 16.7478 8.53706 16.3888 8.53706H10.9293C10.5703 8.53706 10.2793 8.24605 10.2793 7.88706C10.2793 7.52808 10.5703 7.23706 10.9293 7.23706H16.3888Z" fill="#FF3366"/>
</svg>
