<svg width="21" height="21" viewBox="0 0 21 21" fill="none" xmlns="http://www.w3.org/2000/svg">
<path fill-rule="evenodd" clip-rule="evenodd" d="M10.4565 13.913C12.3655 13.913 13.913 12.3655 13.913 10.4565C13.913 8.54753 12.3655 7 10.4565 7C8.54753 7 7 8.54753 7 10.4565C7 12.3655 8.54753 13.913 10.4565 13.913Z" stroke="#898989" stroke-width="0.833333"/>
<path fill-rule="evenodd" clip-rule="evenodd" d="M17.0441 11.9525L19.5717 11.6217C19.6904 10.7639 19.695 9.93433 19.5717 9.04292L17.0441 8.71217C16.8735 8.00317 16.5942 7.33833 16.224 6.73325L17.7785 4.7105C17.258 4.02183 16.6441 3.40783 15.9557 2.88683L13.9335 4.44117C13.3282 4.07008 12.6629 3.79017 11.9533 3.61908L11.6225 1.09108C10.7444 0.969417 9.91555 0.970167 9.04455 1.09017L8.71388 3.61717C8.00313 3.78775 7.33672 4.06758 6.73038 4.43875L4.70772 2.88425C4.04738 3.3835 3.41713 4.00308 2.88497 4.70617L4.43913 6.72833C4.06713 7.335 3.78672 8.00183 3.61563 8.71317L1.08822 9.04392C0.974883 9.86392 0.966383 10.7396 1.08822 11.6209L3.61563 11.9517C3.78672 12.663 4.06713 13.3298 4.43913 13.9365L2.88497 15.9587C3.38447 16.6187 4.00438 17.2488 4.70772 17.7806L6.73038 16.226C7.3368 16.5972 8.00313 16.877 8.71388 17.0476L9.04455 19.5746C9.91538 19.6946 10.7442 19.6954 11.6225 19.5737L11.9533 17.0457C12.6628 16.8746 13.3281 16.5947 13.9335 16.2236L15.9557 17.7778C16.6441 17.2568 17.258 16.6428 17.7785 15.9542L16.224 13.9314C16.5942 13.3264 16.8735 12.6615 17.0441 11.9525V11.9525Z" stroke="#898989" stroke-width="0.833333"/>
</svg>
