<svg width="15" height="13" viewBox="0 0 15 13" fill="none" xmlns="http://www.w3.org/2000/svg">
<path fill-rule="evenodd" clip-rule="evenodd" d="M7.88802 0.0649677C8.07956 -0.0146559 8.30018 0.0288663 8.44719 0.175077L13.873 5.57384C14.074 5.77381 14.0748 6.09892 13.8748 6.29988L8.44899 11.7532C8.30238 11.9006 8.08136 11.9451 7.88902 11.8657C7.69688 11.7865 7.57153 11.599 7.57153 11.3912V8.55362C6.87176 8.51952 6.1718 8.62201 5.51114 8.85567C4.04643 9.36891 2.79471 10.476 1.79029 12.1461L1.46337 12.691C1.35306 12.875 1.14006 12.971 0.929067 12.9317C0.718275 12.8924 0.554014 12.7261 0.517311 12.5149L0.408204 11.8878C0.407001 11.8802 0.405797 11.8723 0.404794 11.8647L0.404393 11.8617C0.291476 10.9935 0.322563 10.1126 0.496051 9.25439C0.843026 7.4782 1.79831 5.8781 3.19744 4.72987C3.40964 4.53874 4.79834 3.38911 7.57153 3.2788V0.5391C7.57153 0.331717 7.69648 0.144591 7.88802 0.0649677ZM8.59862 8.09172V10.1469L12.785 5.93967L8.59862 1.77437V3.78382C8.59841 4.06741 8.36837 4.29746 8.08477 4.29746H8.08096C5.23075 4.2762 3.92669 5.45351 3.89079 5.4868C3.88056 5.49683 3.87013 5.50626 3.8591 5.51528C2.60819 6.55079 1.81556 7.87611 1.50348 9.45395C1.40801 9.9363 1.36148 10.4271 1.36449 10.9187C2.41685 9.42246 3.69464 8.4042 5.17159 7.88674C6.55608 7.40158 7.72757 7.5141 8.1668 7.5849C8.4157 7.62501 8.59862 7.83981 8.59862 8.09172Z" fill="black"/>
</svg>
